<mxfile host="app.diagrams.net" modified="2023-09-25T15:08:05.009Z" agent="Mozilla/5.0 (Windows NT 10.0; Win64; x64) AppleWebKit/537.36 (KHTML, like Gecko) Chrome/116.0.0.0 Safari/537.36" version="21.8.2" etag="IE0vkVO7wnVriD4RH-P8" type="github">
  <diagram name="Страница — 1" id="ElYnzRKVSqd9ER_9xfTo">
    <mxGraphModel>
      <root>
        <mxCell id="0" />
        <mxCell id="1" parent="0" />
      </root>
    </mxGraphModel>
  </diagram>
</mxfile>
